<?xml version="1.0" encoding="UTF-8"?>
<!--Generator: Apple Native CoreSVG 232.5-->
<!DOCTYPE svg
PUBLIC "-//W3C//DTD SVG 1.1//EN"
       "http://www.w3.org/Graphics/SVG/1.1/DTD/svg11.dtd">
<svg version="1.1" xmlns="http://www.w3.org/2000/svg" xmlns:xlink="http://www.w3.org/1999/xlink" width="25.3418" height="26.3574">
 <g>
  <rect height="26.3574" opacity="0" width="25.3418" x="0" y="0"/>
  <path d="M12.666 26.3574C13.125 26.3574 13.5547 26.2109 14.0918 25.8984L24.082 20.1074C24.9707 19.5801 25.3418 19.1699 25.3418 18.5449C25.3418 17.9102 24.9707 17.5 24.082 16.9824L14.0918 11.1914C13.5547 10.8789 13.125 10.7227 12.666 10.7227C12.2168 10.7227 11.7871 10.8789 11.2402 11.1914L1.25977 16.9824C0.361328 17.5 0 17.9102 0 18.5449C0 19.1699 0.361328 19.5801 1.25977 20.1074L11.2402 25.8984C11.7871 26.2109 12.2168 26.3574 12.666 26.3574Z" fill="#ffffff" fill-opacity="0.85"/>
  <path d="M12.666 15.957C13.125 15.957 13.5547 15.8008 14.0918 15.4883L24.082 9.69727C24.9707 9.16992 25.3418 8.75977 25.3418 8.13477C25.3418 7.5 24.9707 7.09961 24.082 6.57227L14.0918 0.78125C13.5547 0.46875 13.125 0.3125 12.666 0.3125C12.2168 0.3125 11.7871 0.46875 11.2402 0.78125L1.25977 6.57227C0.361328 7.09961 0 7.5 0 8.13477C0 8.75977 0.361328 9.16992 1.25977 9.69727L11.2402 15.4883C11.7871 15.8008 12.2168 15.957 12.666 15.957Z" fill="#1e1e1e"/>
  <path d="M12.666 15.957C13.125 15.957 13.5547 15.8008 14.0918 15.4883L24.082 9.69727C24.9707 9.16992 25.3418 8.75977 25.3418 8.13477C25.3418 7.5 24.9707 7.09961 24.082 6.57227L14.0918 0.78125C13.5547 0.46875 13.125 0.3125 12.666 0.3125C12.2168 0.3125 11.7871 0.46875 11.2402 0.78125L1.25977 6.57227C0.361328 7.09961 0 7.5 0 8.13477C0 8.75977 0.361328 9.16992 1.25977 9.69727L11.2402 15.4883C11.7871 15.8008 12.2168 15.957 12.666 15.957ZM12.666 14.082C12.5 14.082 12.3438 14.0234 12.1484 13.916L2.35352 8.30078C2.28516 8.26172 2.22656 8.21289 2.22656 8.13477C2.22656 8.05664 2.28516 8.00781 2.35352 7.96875L12.1484 2.35352C12.3438 2.24609 12.5 2.1875 12.666 2.1875C12.8418 2.1875 12.9883 2.24609 13.1836 2.35352L22.9785 7.96875C23.0566 8.00781 23.1055 8.05664 23.1055 8.13477C23.1055 8.21289 23.0566 8.26172 22.9785 8.30078L13.1836 13.916C12.9883 14.0234 12.8418 14.082 12.666 14.082Z" fill="#ffffff" fill-opacity="0.85"/>
 </g>
</svg>

