<?xml version="1.0" encoding="UTF-8"?>
<!--Generator: Apple Native CoreSVG 232.5-->
<!DOCTYPE svg
PUBLIC "-//W3C//DTD SVG 1.1//EN"
       "http://www.w3.org/Graphics/SVG/1.1/DTD/svg11.dtd">
<svg version="1.1" xmlns="http://www.w3.org/2000/svg" xmlns:xlink="http://www.w3.org/1999/xlink" width="24.6582" height="25.8301">
 <g>
  <rect height="25.8301" opacity="0" width="24.6582" x="0" y="0"/>
  <path d="M22.3926 20.1172L15.6738 20.1172L15.6738 21.2402C15.6738 23.2324 17.0508 24.5996 19.043 24.5996C21.0254 24.5996 22.3926 23.2324 22.3926 21.2402Z" fill="#ffffff" fill-opacity="0.85"/>
  <path d="M14.3262 1.80664L23.75 1.80664C24.248 1.80664 24.6582 1.38672 24.6582 0.898438C24.6582 0.400391 24.248 0 23.75 0L14.3262 0C13.7891 0 13.418 0.400391 13.418 0.898438C13.418 1.38672 13.7891 1.80664 14.3262 1.80664ZM19.043 25.791C21.7773 25.791 23.5938 23.9746 23.5938 21.2402L23.5938 0.9375L21.875 0.9375L21.875 21.2402C21.875 22.9395 20.7422 24.0723 19.043 24.0723C17.334 24.0723 16.1914 22.9395 16.1914 21.2402L16.1914 0.9375L14.4629 0.9375L14.4629 21.2402C14.4629 23.9746 16.2891 25.791 19.043 25.791ZM15.7617 9.19922L18.9355 9.19922C19.3066 9.19922 19.5898 8.91602 19.5898 8.54492C19.5898 8.19336 19.2871 7.90039 18.9258 7.90039L15.7617 7.90039ZM15.7617 13.3105L18.9355 13.3105C19.3066 13.3105 19.5898 13.0273 19.5898 12.6562C19.5898 12.3145 19.2969 12.0215 18.9355 12.0215L15.7617 12.0215ZM15.7617 17.4219L18.9258 17.4219C19.3164 17.4219 19.5898 17.1387 19.5801 16.7676C19.5801 16.4258 19.2871 16.1328 18.9258 16.1328L15.7617 16.1328Z" fill="#ffffff" fill-opacity="0.85"/>
  <path d="M8.97461 5.08789L2.25586 5.08789L2.25586 21.2402C2.25586 23.2324 3.62305 24.5996 5.625 24.5996C7.60742 24.5996 8.97461 23.2324 8.97461 21.2402Z" fill="#ffffff" fill-opacity="0.85"/>
  <path d="M0.908203 1.80664L10.332 1.80664C10.8301 1.80664 11.2402 1.38672 11.2402 0.898438C11.2402 0.400391 10.8301 0 10.332 0L0.908203 0C0.371094 0 0 0.400391 0 0.898438C0 1.38672 0.371094 1.80664 0.908203 1.80664ZM5.625 25.791C8.35938 25.791 10.1758 23.9746 10.1758 21.2402L10.1758 0.9375L8.44727 0.9375L8.44727 21.2402C8.44727 22.9395 7.31445 24.0723 5.625 24.0723C3.90625 24.0723 2.77344 22.9395 2.77344 21.2402L2.77344 0.9375L1.04492 0.9375L1.04492 21.2402C1.04492 23.9746 2.87109 25.791 5.625 25.791Z" fill="#ffffff" fill-opacity="0.85"/>
  <path d="M2.77344 9.19922L2.77344 7.90039L5.50781 7.90039C5.85938 7.90039 6.16211 8.19336 6.16211 8.54492C6.16211 8.91602 5.88867 9.19922 5.51758 9.19922ZM2.77344 13.3105L2.77344 12.0215L5.51758 12.0215C5.86914 12.0215 6.16211 12.3145 6.16211 12.6562C6.16211 13.0273 5.88867 13.3105 5.51758 13.3105ZM2.77344 17.4219L2.77344 16.1328L5.50781 16.1328C5.85938 16.1328 6.15234 16.4258 6.15234 16.7676C6.16211 17.1387 5.89844 17.4219 5.50781 17.4219Z" fill="#1e1e1e"/>
 </g>
</svg>

