<?xml version="1.0" encoding="UTF-8"?>
<!--Generator: Apple Native CoreSVG 232.5-->
<!DOCTYPE svg
PUBLIC "-//W3C//DTD SVG 1.1//EN"
       "http://www.w3.org/Graphics/SVG/1.1/DTD/svg11.dtd">
<svg version="1.1" xmlns="http://www.w3.org/2000/svg" xmlns:xlink="http://www.w3.org/1999/xlink" width="35.4688" height="28.3496">
 <g>
  <rect height="28.3496" opacity="0" width="35.4688" x="0" y="0"/>
  <path d="M6.07422 19.3066C6.07422 22.373 8.4668 24.7754 11.7773 24.7754L29.7754 24.7754C33.0762 24.7754 35.4688 22.373 35.4688 19.3066C35.4688 18.3984 35.1953 17.5684 34.8828 16.7969L30.4688 6.49414C29.668 4.58984 28.0664 3.60352 25.9473 3.60352L15.5957 3.60352C13.4863 3.60352 11.8848 4.58984 11.084 6.49414L6.66016 16.7969C6.34766 17.5586 6.07422 18.3984 6.07422 19.3066ZM7.80273 19.3066C7.80273 17.1973 9.42383 15.5762 11.7773 15.5762L29.7754 15.5762C32.1191 15.5762 33.7402 17.1973 33.7402 19.3066C33.7402 21.6113 32.1191 23.0371 29.7754 23.0371L11.7773 23.0371C9.42383 23.0371 7.80273 21.416 7.80273 19.3066ZM9.69727 14.2773L12.7441 6.95312C13.2422 5.74219 14.2578 5.12695 15.6543 5.12695L25.8984 5.12695C27.2852 5.12695 28.3105 5.74219 28.7988 6.95312L31.8359 14.2676C31.2207 14.0039 30.5176 13.8379 29.7754 13.8379L11.7773 13.8379C11.0254 13.8379 10.3223 14.0039 9.69727 14.2773ZM28.1934 19.3066C28.1934 20.1758 28.9062 20.8398 29.7559 20.8398C30.5762 20.8398 31.2793 20.1562 31.2793 19.3066C31.2793 18.4863 30.5762 17.7734 29.7559 17.7734C28.9062 17.7734 28.1934 18.4863 28.1934 19.3066Z" fill="#ffffff" fill-opacity="0.85"/>
  <path d="M7.87109 28.3496C12.168 28.3496 15.7422 24.7754 15.7422 20.4785C15.7422 16.1523 12.1973 12.6074 7.87109 12.6074C3.55469 12.6074 0 16.1621 0 20.4785C0 24.8047 3.54492 28.3496 7.87109 28.3496Z" fill="#1e1e1e"/>
  <path d="M7.87109 26.7871C11.2988 26.7871 14.1895 23.9355 14.1895 20.4785C14.1895 17.0117 11.3379 14.1602 7.87109 14.1602C4.41406 14.1602 1.55273 17.0215 1.55273 20.4785C1.55273 23.9551 4.41406 26.7871 7.87109 26.7871Z" fill="#ffffff" fill-opacity="0.85"/>
  <path d="M7.87109 24.4629C7.44141 24.4629 7.16797 24.1797 7.16797 23.75L7.16797 21.1816L4.59961 21.1816C4.17969 21.1816 3.88672 20.9082 3.88672 20.4785C3.88672 20.0391 4.17969 19.7656 4.59961 19.7656L7.16797 19.7656L7.16797 17.207C7.16797 16.7871 7.44141 16.4941 7.87109 16.4941C8.31055 16.4941 8.58398 16.7871 8.58398 17.207L8.58398 19.7656L11.1426 19.7656C11.5625 19.7656 11.8555 20.0391 11.8555 20.4785C11.8555 20.9082 11.5625 21.1816 11.1426 21.1816L8.58398 21.1816L8.58398 23.75C8.58398 24.1797 8.31055 24.4629 7.87109 24.4629Z" fill="#1e1e1e"/>
 </g>
</svg>

